<svg xmlns="http://www.w3.org/2000/svg" width="64" height="64" viewBox="0 0 64 64">
  <defs>
    <linearGradient id="rainbow" x1="0" y1="0" x2="1" y2="1">
      <stop offset="0" stop-color="#ff4fa3"/>
      <stop offset=".32" stop-color="#ff9f1c"/>
      <stop offset=".58" stop-color="#00f5d4"/>
      <stop offset=".82" stop-color="#00bfff"/>
      <stop offset="1" stop-color="#9b5de5"/>
    </linearGradient>
  </defs>
  <rect x="5" y="14" width="54" height="36" rx="8"
        fill="none" stroke="url(#rainbow)" stroke-width="4"/>
  <g fill="url(#rainbow)">
    <rect x="11" y="20" width="6" height="5" rx="1"/>
    <rect x="20" y="20" width="6" height="5" rx="1"/>
    <rect x="29" y="20" width="6" height="5" rx="1"/>
    <rect x="38" y="20" width="6" height="5" rx="1"/>
    <rect x="47" y="20" width="6" height="5" rx="1"/>
    <rect x="14" y="29" width="6" height="5" rx="1"/>
    <rect x="23" y="29" width="6" height="5" rx="1"/>
    <rect x="32" y="29" width="6" height="5" rx="1"/>
    <rect x="41" y="29" width="6" height="5" rx="1"/>
    <rect x="17" y="38" width="30" height="5" rx="2"/>
  </g>
  <path d="M49 6l1.3 3.7L54 11l-3.7 1.3L49 16l-1.3-3.7L44 11l3.7-1.3z"
        fill="#ff4fa3"/>
</svg>
